<svg height="512" viewBox="0 0 48 60" width="512" xmlns="http://www.w3.org/2000/svg"><g id="Page-1" fill="none" fill-rule="evenodd"><g id="003---Hot-Air-Balloon" fill-rule="nonzero"><path id="Shape" d="m47 18c0 11.23-12.68 23.95-20 27.21-.9376887.459747-1.9574934.7282956-3 .79-1.0425066-.0617044-2.0623113-.330253-3-.79-7.32-3.26-20-15.98-20-27.21 0-11 10.3-17 23-17s23 6 23 17z" fill="#e8edfc"/><path id="Shape" d="m24 1c-.5 0-1 .013-1.5.032 12 .456 21.5 6.405 21.5 16.968 0 11.23-12.68 23.95-20 27.21-.4867835.2164405-.9879847.3988777-1.5.546.4866912.1486806.9912772.2307599 1.5.244 1.0425066-.0617044 2.0623113-.330253 3-.79 7.32-3.26 20-15.98 20-27.21 0-11-10.3-17-23-17z" fill="#cad9fc"/><path id="Shape" d="m41 18c0 13-12.565 28-17 28s-17-15-17-28c0-11 7.611-17 17-17s17 6 17 17z" fill="#a4c2f7"/><path id="Shape" d="m35 18c0 13-8.13 28-11 28s-11-15-11-28c0-11 4.925-17 11-17s11 6 11 17z" fill="#e8edfc"/><path id="Shape" d="m28 18c0 13-2.957 28-4 28s-4-15-4-28c0-11 1.791-17 4-17s4 6 4 17z" fill="#a4c2f7"/><path id="Shape" d="m30 53v2h-12v-2c.0032948-1.1032019.8967981-1.9967052 2-2h8c1.1032019.0032948 1.9967052.8967981 2 2z" fill="#e8edfc"/><path id="Shape" d="m28 51h-3c1.1032019.0032948 1.9967052.8967981 2 2v2h3v-2c-.0032948-1.1032019-.8967981-1.9967052-2-2z" fill="#cad9fc"/><path id="Shape" d="m30 55v2c-.0032948 1.1032019-.8967981 1.9967052-2 2h-8c-1.1032019-.0032948-1.9967052-.8967981-2-2v-2z" fill="#e8edfc"/><path id="Shape" d="m27 55v2c-.0032948 1.1032019-.8967981 1.9967052-2 2h3c1.1032019-.0032948 1.9967052-.8967981 2-2v-2z" fill="#cad9fc"/><path id="Shape" d="m27 45.21v5.79h-6v-5.79c.9376887.459747 1.9574934.7282956 3 .79 1.0425066-.0617044 2.0623113-.330253 3-.79z" fill="#e8edfc"/><path id="Shape" d="m21 45.21v5.79h-1c-1.1032019.0032948-1.9967052.8967981-2 2v4c.0032948 1.1032019.8967981 1.9967052 2 2h3c-1.1032019-.0032948-1.9967052-.8967981-2-2v-4c.0032948-1.1032019.8967981-1.9967052 2-2h1v-5.79c-7.32-3.26-20-15.98-20-27.21 0-11.163 10.367-16.532 21.516-16.968-.501-.019-1.006-.032-1.516-.032-11.7 0-23 5.343-23 17 0 11.23 12.68 23.95 20 27.21z" fill="#fff"/><path id="Shape" d="m3.677 25.359-1.84.782c-1.14423048-2.5656312-1.76859387-5.3326112-1.837-8.141h2c.06878433 2.5395194.63869966 5.040418 1.677 7.359z" fill="#fff"/><g fill="#428dff"><path id="Shape" d="m1.512 22.967c-.55228474.0030376-1.00246242-.4422153-1.00549998-.9945-.00303757-.5522847.44221524-1.0024624.99449998-1.0055h.011c.55228475 0 1 .4477153 1 1s-.44771525 1-1 1z"/><path id="Shape" d="m1 19c.55228475 0 1-.4477153 1-1 0-6.635 3.983-11.067 9.535-13.552-3.497 3.17-5.535 7.859-5.535 13.552 0 7.65 4.09 15.924 8.588 21.67-.8513333-.738-1.6763333-1.5066667-2.475-2.306-3.52991531-3.4438738-6.39031087-7.5127152-8.436-12-.22033671-.4936264-.78779011-.7292973-1.293-.537-.25252396.0961075-.45429155.2920168-.55779582.5416002-.10350426.2495834-.09959916.5307868.01079582.7773998 2.14543914 4.7232549 5.15091111 9.0061288 8.863 12.63 1.8173386 1.8382816 3.791479 3.5146279 5.9 5.01 1.0692966.7615593 2.194864 1.4408444 3.367 2.032l.041.019v4.163c-1.6568542 0-3 1.3431458-3 3v4c0 1.6568542 1.3431458 3 3 3h8c1.6568542 0 3-1.3431458 3-3v-4c0-1.6568542-1.3431458-3-3-3v-4.17c7.9-3.883 19.992-16.763 19.992-27.83 0-10.767-9.645-18-24-18s-24 7.233-24 18c0 .5522847.44771525 1 1 1zm39-1c0 8.3-5.53 17.653-10.3 22.885.873-1.587 1.532-3.018 1.793-3.6 2.7792776-6.0614286 4.3119599-12.6196223 4.507-19.285 0-5.467-1.391-10.953-4.351-14.408 5.231 2.443 8.351 7.567 8.351 14.408zm-19.378 19.035c.386 2.385.737 4.2 1.06 5.575-3.119-4.593-7.682-15.042-7.682-24.61 0-7.894 2.738-13.64 7.053-15.415-1.802 3.976-2.053 11.537-2.053 15.415.0548956 6.3770586.5971417 12.7405934 1.622 19.035zm6.325-34.45c4.315 1.775 7.053 7.521 7.053 15.415 0 9.586-4.58 20.056-7.688 24.635.324-1.383.678-3.2 1.066-5.6 1.0248583-6.2944066 1.5671044-12.6579414 1.622-19.035 0-3.878-.251-11.439-2.053-15.415zm.053 15.415c-.0485135 8.6280236-1.0546752 17.2239988-3 25.63-1.9453248-8.4060012-2.9514865-17.0019764-3-25.63 0-12.208 2.2-16 3-16s3 3.792 3 16zm-10.649-14.408c-2.96 3.455-4.351 8.941-4.351 14.408.1965168 6.6642303 1.7302093 13.2210208 4.51 19.281.261.586.92 2.017 1.793 3.6-4.773-5.228-10.303-14.581-10.303-22.881 0-6.841 3.12-11.965 8.351-14.408zm11.649 54.408h-8c-.5522847 0-1-.4477153-1-1v-1h10v1c0 .5522847-.4477153 1-1 1zm1-5v1h-10v-1c0-.5522847.4477153-1 1-1h8c.5522847 0 1 .4477153 1 1zm-3-3h-4v-3.356c.6527261.1868014 1.3229066.3060935 2 .356.6798993-.025817 1.3529528-.1456206 2-.356zm20-32c0 7.908-6.5 16.481-12.69 21.8 4.538-5.754 8.69-14.093 8.69-21.8 0-5.693-2.038-10.382-5.535-13.552 5.552 2.485 9.535 6.917 9.535 13.552z"/></g></g></g></svg>